<!DOCTYPE svg PUBLIC "=//W3C//DTD SVG 1.1//EN" "http://www.w3.org/Graphics/SVG/1.1/DTD/svg11.dtd">
<svg version="1.1" xmlns="http://www.w3.org/2000/svg" xmlns:xlink="http://www.w3.org/1999/xlink" xml:space="preserve" width="528" height="408">

    <style type="text/css">
        <![CDATA[
            rect {
                fill: None;
                stroke: #000000;
                stroke-width: 1;
            }

            rect.background {
                fill: #eeeeee;
                stroke: None;
            }

            text {
                fill: #000000;
            }            }
        ]]>
    </style>

    <!--<rect class="background" x="0" y="0" width="528" height="408" fill="#eeeeee"/>-->
    <g id="content">
        <g id="shapes">
            <line id="nameLine" x1="72" y1="75" x2="323" y2="75" stroke="#000000" stroke-width="1"/>

            <line id="alignmentLine" x1="437" y1="75" x2="504" y2="75" stroke="#000000" stroke-width="1"/>

            <rect id="strScoreBox" x="112" y="85" width="37" height="25"/>
            <rect id="strModBox" x="149" y="85" width="37" height="25"/>

            <rect id="occupationBox" x="305" y="85" width="211" height="25"/>

            <rect id="agiScoreBox" x="112" y="113" width="37" height="25"/>
            <rect id="agiModBox" x="149" y="113" width="37" height="25"/>

            <path id="hpHeart" fill="none" stroke="#000000" stroke-width="0.3" transform="scale(3.5) translate(4.2, -183)" d="m 63.138086,218.68442 c -0.07461,-0.46891 -0.432599,-4.14449 2.335034,-4.18374 1.114203,-0.0159 2.059044,0.50349 2.78938,1.53681 0.730336,-1.03332 1.675177,-1.55268 2.78938,-1.53681 2.767633,0.0392 2.409644,3.71483 2.335034,4.18374 -0.345647,2.17241 -2.294279,3.95414 -5.124414,5.12441 -2.830135,-1.17027 -4.778767,-2.952 -5.124414,-5.12441 z"/>
            <path id="acShield" fill="none" stroke="#000000" stroke-width="0.3" transform="scale(3.5) translate(8, -182.5)" d="m 88.9,218.96239 v -4.17838 h 9.055385 v 4.17838 c 0,3.03286 -2.504104,4.5806 -4.527691,4.5736 C 91.404107,223.54299 88.9,221.99525 88.9,218.96239 Z"/>
            <rect id="spdBox" x="446" y="113" width="37" height="25"/>

            <rect id="staScoreBox" x="112" y="141" width="37" height="25"/>
            <rect id="staModBox" x="149" y="141" width="37" height="25"/>

            <rect id="initBox" x="280" y="141" width="37" height="25"/>

            <rect id="moneyBox" x="390" y="141" width="126" height="25"/>

            <rect id="intScoreBox" x="112" y="169" width="37" height="25"/>
            <rect id="intModBox" x="149" y="169" width="37" height="25"/>

            <rect id="fortBox" x="282" y="169" width="37" height="25"/>
            <rect id="reflexBox" x="396" y="169" width="37" height="25"/>
            <rect id="willBox" x="479" y="169" width="37" height="25"/>

            <rect id="perScoreBox" x="112" y="197" width="37" height="25"/>
            <rect id="perModBox" x="149" y="197" width="37" height="25"/>

            <rect id="weaponBox" x="351" y="197" width="165" height="37"/>

            <rect id="lucScoreBox" x="112" y="225" width="37" height="25"/>
            <rect id="lucModBox" x="149" y="225" width="37" height="25"/>

            <rect id="luckySignBox" x="195" y="237" width="321" height="37"/>

            <rect id="langBox" x="111" y="278" width="405" height="37"/>

            <rect id="equipBox" x="114" y="319" width="402" height="37"/>

            <rect id="raceBox" x="126" y="359" width="390" height="37"/>
        </g>

        <g id="labels">
            <text x="28" y="30" font-size="24" font-family="Liberation Serif" textLength="472" lengthAdjust="spacingAndGlyphs">Dungeon Crawl Classics Zero Level Character</text>

            <text id="labelText" font-size="18" font-family="Liberation Serif">

                <tspan x="18" y="75">Name:</tspan>
                <tspan x="349" y="75">Alignment:</tspan>

                <tspan x="44" y="103">Strength:</tspan>
                <tspan x="214" y="103">Occupation:</tspan>

                <tspan x="54" y="131">Agility:</tspan>
                <tspan x="206" y="131">HP:</tspan>
                <tspan x="306" y="131">AC:</tspan>
                <tspan x="412" y="131">Spd:</tspan>

                <tspan x="45" y="159">Stamina:</tspan>
                <tspan x="208" y="159">Initiative:</tspan>
                <tspan x="332" y="159">Money:</tspan>

                <tspan x="19" y="187">Intelligence:</tspan>
                <tspan x="209" y="187">Fortitude:</tspan>
                <tspan x="325" y="187">Reflexes:</tspan>
                <tspan x="440" y="187">Will:</tspan>

                <tspan x="23" y="215">Personality:</tspan>
                <tspan x="222" y="222">Trained Weapon:</tspan>

                <tspan x="67" y="243">Luck:</tspan>
                <tspan x="100" y="269">Lucky Sign:</tspan>

                <tspan x="20" y="302">Languages:</tspan>
                <tspan x="23" y="341">Equipment:</tspan>
                <tspan x="20" y="381">Racial Traits:</tspan>

            </text>
        </g>

        <g id="editableFields">
            <text id="monoText" font-size="18" font-family="Liberation Mono">

                <tspan id="strScore" x="120" y="104"/>
                <tspan id="strMod" x="157" y="104"/>

                <tspan id="agiScore" x="120" y="132"/>
                <tspan id="agiMod" x="157" y="132"/>

                <tspan id="hitPoints" x="247" y="131"/>
                <tspan id="armorClass" x="344" y="131"/>
                <tspan id="spdScore" x="450" y="132"/>

                <tspan id="staScore" x="120" y="160"/>
                <tspan id="staMod" x="157" y="160"/>

                <tspan id="initMod" x="288" y="160"/>

                <tspan id="intScore" x="120" y="188"/>
                <tspan id="intMod" x="157" y="188"/>

                <tspan id="fortMod" x="290" y="188"/>
                <tspan id="reflexMod" x="404" y="188"/>
                <tspan id="willMod" x="487" y="188"/>

                <tspan id="perScore" x="120" y="215"/>
                <tspan id="perMod" x="157" y="215"/>

                <tspan id="lucScore" x="120" y="243"/>
                <tspan id="lucMod" x="157" y="243"/>

            </text>

            <text id="sansText" font-size="12" font-family="Liberation Sans">

                <tspan id="occupation" x="313" y="101"/>

                <tspan id="money" x="398" y="157"/>

                <tspan id="weapon1" x="359" y="211"/>
                <tspan id="weapon2" x="359" y="225"/>

                <tspan id="luckySign1" x="203" y="251"/>
                <tspan id="luckySign2" x="203" y="265"/>

                <tspan id="languages1" x="119" y="292"/>
                <tspan id="languages2" x="119" y="306"/>

                <tspan id="equipment1" x="122" y="333"/>
                <tspan id="equipment2" x="122" y="347"/>

                <tspan id="traits1" x="134" y="373"/>
                <tspan id="traits2" x="134" y="387"/>

            </text>
        </g>
    </g>

</svg>