<!DOCTYPE svg PUBLIC "=//W3C//DTD SVG 1.1//EN" "http://www.w3.org/Graphics/SVG/1.1/DTD/svg11.dtd">
<svg xmlns="http://www.w3.org/2000/svg" xmlns:xlink="http://www.w3.org/1999/xlink" version="1.1" xml:space="preserve" width="1056" height="816">

    <style type="text/css">
        
            rect {
                fill: None;
                stroke: #000000;
                stroke-width: 1;
            }

            rect.background {
                fill: #ffffff;
                stroke: None;
            }

            rect.placeholder {
                fill: #0000ff;
                stroke: #ff0000;
                stroke-width: 1;
            }

            text {
                fill: #000000;
            }            }
        
    </style>

    <g id="sheet1" class="charsheet" transform="translate(0, 0)">

    <g id="content">
        <g id="shapes">
            <line id="nameLine" x1="72" y1="75" x2="323" y2="75" stroke="#000000" stroke-width="1"/>

            <line id="alignmentLine" x1="437" y1="75" x2="504" y2="75" stroke="#000000" stroke-width="1"/>

            <rect id="strScoreBox" x="112" y="85" width="37" height="25"/>
            <rect id="strModBox" x="149" y="85" width="37" height="25"/>

            <rect id="occupationBox" x="305" y="85" width="211" height="25"/>

            <rect id="agiScoreBox" x="112" y="113" width="37" height="25"/>
            <rect id="agiModBox" x="149" y="113" width="37" height="25"/>

            <path id="hpHeart" fill="none" stroke="#000000" stroke-width="0.3" transform="scale(3.5) translate(4.2, -183)" d="m 63.138086,218.68442 c -0.07461,-0.46891 -0.432599,-4.14449 2.335034,-4.18374 1.114203,-0.0159 2.059044,0.50349 2.78938,1.53681 0.730336,-1.03332 1.675177,-1.55268 2.78938,-1.53681 2.767633,0.0392 2.409644,3.71483 2.335034,4.18374 -0.345647,2.17241 -2.294279,3.95414 -5.124414,5.12441 -2.830135,-1.17027 -4.778767,-2.952 -5.124414,-5.12441 z"/>
            <path id="acShield" fill="none" stroke="#000000" stroke-width="0.3" transform="scale(3.5) translate(8, -182.5)" d="m 88.9,218.96239 v -4.17838 h 9.055385 v 4.17838 c 0,3.03286 -2.504104,4.5806 -4.527691,4.5736 C 91.404107,223.54299 88.9,221.99525 88.9,218.96239 Z"/>
            <rect id="spdBox" x="446" y="113" width="37" height="25"/>

            <rect id="staScoreBox" x="112" y="141" width="37" height="25"/>
            <rect id="staModBox" x="149" y="141" width="37" height="25"/>

            <rect id="initBox" x="280" y="141" width="37" height="25"/>

            <rect id="moneyBox" x="390" y="141" width="126" height="25"/>

            <rect id="intScoreBox" x="112" y="169" width="37" height="25"/>
            <rect id="intModBox" x="149" y="169" width="37" height="25"/>

            <rect id="fortBox" x="282" y="169" width="37" height="25"/>
            <rect id="reflexBox" x="396" y="169" width="37" height="25"/>
            <rect id="willBox" x="479" y="169" width="37" height="25"/>

            <rect id="perScoreBox" x="112" y="197" width="37" height="25"/>
            <rect id="perModBox" x="149" y="197" width="37" height="25"/>

            <rect id="weaponBox" x="351" y="197" width="165" height="37"/>

            <rect id="lucScoreBox" x="112" y="225" width="37" height="25"/>
            <rect id="lucModBox" x="149" y="225" width="37" height="25"/>

            <rect id="luckySignBox" x="195" y="237" width="321" height="37"/>

            <rect id="langBox" x="111" y="278" width="405" height="37"/>

            <rect id="equipBox" x="114" y="319" width="402" height="37"/>

            <rect id="raceBox" x="126" y="359" width="390" height="37"/>
        </g>

        <g id="labels">
            <text x="28" y="30" font-size="24" font-family="Liberation Serif" textLength="472" lengthAdjust="spacingAndGlyphs">Dungeon Crawl Classics Zero Level Character</text>

            <text id="labelText" font-size="18" font-family="Liberation Serif">

                <tspan x="18" y="75">Name:</tspan>
                <tspan x="349" y="75">Alignment:</tspan>

                <tspan x="44" y="103">Strength:</tspan>
                <tspan x="214" y="103">Occupation:</tspan>

                <tspan x="54" y="131">Agility:</tspan>
                <tspan x="206" y="131">HP:</tspan>
                <tspan x="306" y="131">AC:</tspan>
                <tspan x="412" y="131">Spd:</tspan>

                <tspan x="45" y="159">Stamina:</tspan>
                <tspan x="208" y="159">Initiative:</tspan>
                <tspan x="332" y="159">Money:</tspan>

                <tspan x="19" y="187">Intelligence:</tspan>
                <tspan x="209" y="187">Fortitude:</tspan>
                <tspan x="325" y="187">Reflexes:</tspan>
                <tspan x="440" y="187">Will:</tspan>

                <tspan x="23" y="215">Personality:</tspan>
                <tspan x="222" y="222">Trained Weapon:</tspan>

                <tspan x="67" y="243">Luck:</tspan>
                <tspan x="100" y="269">Lucky Sign:</tspan>

                <tspan x="20" y="302">Languages:</tspan>
                <tspan x="23" y="341">Equipment:</tspan>
                <tspan x="20" y="381">Racial Traits:</tspan>

            </text>
        </g>

        <g id="editableFields">
            <text id="monoText" font-size="18" font-family="Liberation Mono">

                <tspan id="strScore" x="120" y="104">16</tspan>
                <tspan id="strMod" x="157" y="104">+2</tspan>

                <tspan id="agiScore" x="120" y="132">10</tspan>
                <tspan id="agiMod" x="157" y="132"> 0</tspan>

                <tspan id="hitPoints" x="247" y="131">2</tspan>
                <tspan id="armorClass" x="344" y="131">10</tspan>
                <tspan id="spdScore" x="450" y="132">30'</tspan>

                <tspan id="staScore" x="120" y="160"> 9</tspan>
                <tspan id="staMod" x="157" y="160"> 0</tspan>

                <tspan id="initMod" x="288" y="160"> 0</tspan>

                <tspan id="intScore" x="120" y="188">11</tspan>
                <tspan id="intMod" x="157" y="188"> 0</tspan>

                <tspan id="fortMod" x="290" y="188"> 0</tspan>
                <tspan id="reflexMod" x="404" y="188"> 0</tspan>
                <tspan id="willMod" x="487" y="188">+2</tspan>

                <tspan id="perScore" x="120" y="215">17</tspan>
                <tspan id="perMod" x="157" y="215">+2</tspan>

                <tspan id="lucScore" x="120" y="243"> 9</tspan>
                <tspan id="lucMod" x="157" y="243"> 0</tspan>

            </text>

            <text id="sansText" font-size="12" font-family="Liberation Sans">

                <tspan id="occupation" x="313" y="101">Potato farmer</tspan>

                <tspan id="money" x="398" y="157">CP:38</tspan>

                <tspan id="weapon1" x="359" y="211">Pitchfork (as spear) 1d8</tspan>
                <tspan id="weapon2" x="359" y="225">0/0/0</tspan>

                <tspan id="luckySign1" x="203" y="251">The bull:</tspan>
                <tspan id="luckySign2" x="203" y="265">Melee attack rolls</tspan>

                <tspan id="languages1" x="119" y="292"></tspan>
                <tspan id="languages2" x="119" y="306">Common</tspan>

                <tspan id="equipment1" x="122" y="333">Pitchfork (as spear) 1d8 0/0/0</tspan>
                <tspan id="equipment2" x="122" y="347">Hen, Rope, 50'</tspan>

                <tspan id="traits1" x="134" y="373"></tspan>
                <tspan id="traits2" x="134" y="387"></tspan>

            </text>
        </g>
    </g>

</g>
    <g id="sheet2" class="charsheet" transform="translate(528, 0)">

    <g id="content">
        <g id="shapes">
            <line id="nameLine" x1="72" y1="75" x2="323" y2="75" stroke="#000000" stroke-width="1"/>

            <line id="alignmentLine" x1="437" y1="75" x2="504" y2="75" stroke="#000000" stroke-width="1"/>

            <rect id="strScoreBox" x="112" y="85" width="37" height="25"/>
            <rect id="strModBox" x="149" y="85" width="37" height="25"/>

            <rect id="occupationBox" x="305" y="85" width="211" height="25"/>

            <rect id="agiScoreBox" x="112" y="113" width="37" height="25"/>
            <rect id="agiModBox" x="149" y="113" width="37" height="25"/>

            <path id="hpHeart" fill="none" stroke="#000000" stroke-width="0.3" transform="scale(3.5) translate(4.2, -183)" d="m 63.138086,218.68442 c -0.07461,-0.46891 -0.432599,-4.14449 2.335034,-4.18374 1.114203,-0.0159 2.059044,0.50349 2.78938,1.53681 0.730336,-1.03332 1.675177,-1.55268 2.78938,-1.53681 2.767633,0.0392 2.409644,3.71483 2.335034,4.18374 -0.345647,2.17241 -2.294279,3.95414 -5.124414,5.12441 -2.830135,-1.17027 -4.778767,-2.952 -5.124414,-5.12441 z"/>
            <path id="acShield" fill="none" stroke="#000000" stroke-width="0.3" transform="scale(3.5) translate(8, -182.5)" d="m 88.9,218.96239 v -4.17838 h 9.055385 v 4.17838 c 0,3.03286 -2.504104,4.5806 -4.527691,4.5736 C 91.404107,223.54299 88.9,221.99525 88.9,218.96239 Z"/>
            <rect id="spdBox" x="446" y="113" width="37" height="25"/>

            <rect id="staScoreBox" x="112" y="141" width="37" height="25"/>
            <rect id="staModBox" x="149" y="141" width="37" height="25"/>

            <rect id="initBox" x="280" y="141" width="37" height="25"/>

            <rect id="moneyBox" x="390" y="141" width="126" height="25"/>

            <rect id="intScoreBox" x="112" y="169" width="37" height="25"/>
            <rect id="intModBox" x="149" y="169" width="37" height="25"/>

            <rect id="fortBox" x="282" y="169" width="37" height="25"/>
            <rect id="reflexBox" x="396" y="169" width="37" height="25"/>
            <rect id="willBox" x="479" y="169" width="37" height="25"/>

            <rect id="perScoreBox" x="112" y="197" width="37" height="25"/>
            <rect id="perModBox" x="149" y="197" width="37" height="25"/>

            <rect id="weaponBox" x="351" y="197" width="165" height="37"/>

            <rect id="lucScoreBox" x="112" y="225" width="37" height="25"/>
            <rect id="lucModBox" x="149" y="225" width="37" height="25"/>

            <rect id="luckySignBox" x="195" y="237" width="321" height="37"/>

            <rect id="langBox" x="111" y="278" width="405" height="37"/>

            <rect id="equipBox" x="114" y="319" width="402" height="37"/>

            <rect id="raceBox" x="126" y="359" width="390" height="37"/>
        </g>

        <g id="labels">
            <text x="28" y="30" font-size="24" font-family="Liberation Serif" textLength="472" lengthAdjust="spacingAndGlyphs">Dungeon Crawl Classics Zero Level Character</text>

            <text id="labelText" font-size="18" font-family="Liberation Serif">

                <tspan x="18" y="75">Name:</tspan>
                <tspan x="349" y="75">Alignment:</tspan>

                <tspan x="44" y="103">Strength:</tspan>
                <tspan x="214" y="103">Occupation:</tspan>

                <tspan x="54" y="131">Agility:</tspan>
                <tspan x="206" y="131">HP:</tspan>
                <tspan x="306" y="131">AC:</tspan>
                <tspan x="412" y="131">Spd:</tspan>

                <tspan x="45" y="159">Stamina:</tspan>
                <tspan x="208" y="159">Initiative:</tspan>
                <tspan x="332" y="159">Money:</tspan>

                <tspan x="19" y="187">Intelligence:</tspan>
                <tspan x="209" y="187">Fortitude:</tspan>
                <tspan x="325" y="187">Reflexes:</tspan>
                <tspan x="440" y="187">Will:</tspan>

                <tspan x="23" y="215">Personality:</tspan>
                <tspan x="222" y="222">Trained Weapon:</tspan>

                <tspan x="67" y="243">Luck:</tspan>
                <tspan x="100" y="269">Lucky Sign:</tspan>

                <tspan x="20" y="302">Languages:</tspan>
                <tspan x="23" y="341">Equipment:</tspan>
                <tspan x="20" y="381">Racial Traits:</tspan>

            </text>
        </g>

        <g id="editableFields">
            <text id="monoText" font-size="18" font-family="Liberation Mono">

                <tspan id="strScore" x="120" y="104">13</tspan>
                <tspan id="strMod" x="157" y="104">+1</tspan>

                <tspan id="agiScore" x="120" y="132"> 6</tspan>
                <tspan id="agiMod" x="157" y="132">-1</tspan>

                <tspan id="hitPoints" x="247" y="131">5</tspan>
                <tspan id="armorClass" x="344" y="131">9</tspan>
                <tspan id="spdScore" x="450" y="132">30'</tspan>

                <tspan id="staScore" x="120" y="160">13</tspan>
                <tspan id="staMod" x="157" y="160">+1</tspan>

                <tspan id="initMod" x="288" y="160">-1</tspan>

                <tspan id="intScore" x="120" y="188">12</tspan>
                <tspan id="intMod" x="157" y="188"> 0</tspan>

                <tspan id="fortMod" x="290" y="188">+1</tspan>
                <tspan id="reflexMod" x="404" y="188">-1</tspan>
                <tspan id="willMod" x="487" y="188">+1</tspan>

                <tspan id="perScore" x="120" y="215">14</tspan>
                <tspan id="perMod" x="157" y="215">+1</tspan>

                <tspan id="lucScore" x="120" y="243"> 8</tspan>
                <tspan id="lucMod" x="157" y="243">-1</tspan>

            </text>

            <text id="sansText" font-size="12" font-family="Liberation Sans">

                <tspan id="occupation" x="313" y="101">Elven sage</tspan>

                <tspan id="money" x="398" y="157">CP:28</tspan>

                <tspan id="weapon1" x="359" y="211">Dagger 1d4</tspan>
                <tspan id="weapon2" x="359" y="225">0/0/0</tspan>

                <tspan id="luckySign1" x="203" y="251">The bull:</tspan>
                <tspan id="luckySign2" x="203" y="265">Melee attack rolls</tspan>

                <tspan id="languages1" x="119" y="292">Common</tspan>
                <tspan id="languages2" x="119" y="306">Elf</tspan>

                <tspan id="equipment1" x="122" y="333">Dagger 1d4 0/0/0</tspan>
                <tspan id="equipment2" x="122" y="347">Parchment and quill pen, Flint &amp; steel</tspan>

                <tspan id="traits1" x="134" y="373">Infravision, Immune to magic sleep/paralysis</tspan>
                <tspan id="traits2" x="134" y="387">Heightened senses, Iron vulnerability</tspan>

            </text>
        </g>
    </g>

</g>
    <g id="sheet3" class="charsheet" transform="translate(0, 408)">

    <g id="content">
        <g id="shapes">
            <line id="nameLine" x1="72" y1="75" x2="323" y2="75" stroke="#000000" stroke-width="1"/>

            <line id="alignmentLine" x1="437" y1="75" x2="504" y2="75" stroke="#000000" stroke-width="1"/>

            <rect id="strScoreBox" x="112" y="85" width="37" height="25"/>
            <rect id="strModBox" x="149" y="85" width="37" height="25"/>

            <rect id="occupationBox" x="305" y="85" width="211" height="25"/>

            <rect id="agiScoreBox" x="112" y="113" width="37" height="25"/>
            <rect id="agiModBox" x="149" y="113" width="37" height="25"/>

            <path id="hpHeart" fill="none" stroke="#000000" stroke-width="0.3" transform="scale(3.5) translate(4.2, -183)" d="m 63.138086,218.68442 c -0.07461,-0.46891 -0.432599,-4.14449 2.335034,-4.18374 1.114203,-0.0159 2.059044,0.50349 2.78938,1.53681 0.730336,-1.03332 1.675177,-1.55268 2.78938,-1.53681 2.767633,0.0392 2.409644,3.71483 2.335034,4.18374 -0.345647,2.17241 -2.294279,3.95414 -5.124414,5.12441 -2.830135,-1.17027 -4.778767,-2.952 -5.124414,-5.12441 z"/>
            <path id="acShield" fill="none" stroke="#000000" stroke-width="0.3" transform="scale(3.5) translate(8, -182.5)" d="m 88.9,218.96239 v -4.17838 h 9.055385 v 4.17838 c 0,3.03286 -2.504104,4.5806 -4.527691,4.5736 C 91.404107,223.54299 88.9,221.99525 88.9,218.96239 Z"/>
            <rect id="spdBox" x="446" y="113" width="37" height="25"/>

            <rect id="staScoreBox" x="112" y="141" width="37" height="25"/>
            <rect id="staModBox" x="149" y="141" width="37" height="25"/>

            <rect id="initBox" x="280" y="141" width="37" height="25"/>

            <rect id="moneyBox" x="390" y="141" width="126" height="25"/>

            <rect id="intScoreBox" x="112" y="169" width="37" height="25"/>
            <rect id="intModBox" x="149" y="169" width="37" height="25"/>

            <rect id="fortBox" x="282" y="169" width="37" height="25"/>
            <rect id="reflexBox" x="396" y="169" width="37" height="25"/>
            <rect id="willBox" x="479" y="169" width="37" height="25"/>

            <rect id="perScoreBox" x="112" y="197" width="37" height="25"/>
            <rect id="perModBox" x="149" y="197" width="37" height="25"/>

            <rect id="weaponBox" x="351" y="197" width="165" height="37"/>

            <rect id="lucScoreBox" x="112" y="225" width="37" height="25"/>
            <rect id="lucModBox" x="149" y="225" width="37" height="25"/>

            <rect id="luckySignBox" x="195" y="237" width="321" height="37"/>

            <rect id="langBox" x="111" y="278" width="405" height="37"/>

            <rect id="equipBox" x="114" y="319" width="402" height="37"/>

            <rect id="raceBox" x="126" y="359" width="390" height="37"/>
        </g>

        <g id="labels">
            <text x="28" y="30" font-size="24" font-family="Liberation Serif" textLength="472" lengthAdjust="spacingAndGlyphs">Dungeon Crawl Classics Zero Level Character</text>

            <text id="labelText" font-size="18" font-family="Liberation Serif">

                <tspan x="18" y="75">Name:</tspan>
                <tspan x="349" y="75">Alignment:</tspan>

                <tspan x="44" y="103">Strength:</tspan>
                <tspan x="214" y="103">Occupation:</tspan>

                <tspan x="54" y="131">Agility:</tspan>
                <tspan x="206" y="131">HP:</tspan>
                <tspan x="306" y="131">AC:</tspan>
                <tspan x="412" y="131">Spd:</tspan>

                <tspan x="45" y="159">Stamina:</tspan>
                <tspan x="208" y="159">Initiative:</tspan>
                <tspan x="332" y="159">Money:</tspan>

                <tspan x="19" y="187">Intelligence:</tspan>
                <tspan x="209" y="187">Fortitude:</tspan>
                <tspan x="325" y="187">Reflexes:</tspan>
                <tspan x="440" y="187">Will:</tspan>

                <tspan x="23" y="215">Personality:</tspan>
                <tspan x="222" y="222">Trained Weapon:</tspan>

                <tspan x="67" y="243">Luck:</tspan>
                <tspan x="100" y="269">Lucky Sign:</tspan>

                <tspan x="20" y="302">Languages:</tspan>
                <tspan x="23" y="341">Equipment:</tspan>
                <tspan x="20" y="381">Racial Traits:</tspan>

            </text>
        </g>

        <g id="editableFields">
            <text id="monoText" font-size="18" font-family="Liberation Mono">

                <tspan id="strScore" x="120" y="104"> 8</tspan>
                <tspan id="strMod" x="157" y="104">-1</tspan>

                <tspan id="agiScore" x="120" y="132"> 9</tspan>
                <tspan id="agiMod" x="157" y="132"> 0</tspan>

                <tspan id="hitPoints" x="247" y="131">3</tspan>
                <tspan id="armorClass" x="344" y="131">10</tspan>
                <tspan id="spdScore" x="450" y="132">30'</tspan>

                <tspan id="staScore" x="120" y="160">10</tspan>
                <tspan id="staMod" x="157" y="160"> 0</tspan>

                <tspan id="initMod" x="288" y="160"> 0</tspan>

                <tspan id="intScore" x="120" y="188">13</tspan>
                <tspan id="intMod" x="157" y="188">+1</tspan>

                <tspan id="fortMod" x="290" y="188"> 0</tspan>
                <tspan id="reflexMod" x="404" y="188"> 0</tspan>
                <tspan id="willMod" x="487" y="188">+1</tspan>

                <tspan id="perScore" x="120" y="215">14</tspan>
                <tspan id="perMod" x="157" y="215">+1</tspan>

                <tspan id="lucScore" x="120" y="243">15</tspan>
                <tspan id="lucMod" x="157" y="243">+1</tspan>

            </text>

            <text id="sansText" font-size="12" font-family="Liberation Sans">

                <tspan id="occupation" x="313" y="101">Herder</tspan>

                <tspan id="money" x="398" y="157">CP:29</tspan>

                <tspan id="weapon1" x="359" y="211">Staff 1d4</tspan>
                <tspan id="weapon2" x="359" y="225">0/0/0</tspan>

                <tspan id="luckySign1" x="203" y="251">Birdsong:</tspan>
                <tspan id="luckySign2" x="203" y="265">Number of languages</tspan>

                <tspan id="languages1" x="119" y="292">Common</tspan>
                <tspan id="languages2" x="119" y="306">Halfling, Gnome</tspan>

                <tspan id="equipment1" x="122" y="333">Staff 1d4 0/0/0</tspan>
                <tspan id="equipment2" x="122" y="347">Sheep, Iron spike</tspan>

                <tspan id="traits1" x="134" y="373"></tspan>
                <tspan id="traits2" x="134" y="387"></tspan>

            </text>
        </g>
    </g>

</g>
    <g id="sheet4" class="charsheet" transform="translate(528, 408)">

    <g id="content">
        <g id="shapes">
            <line id="nameLine" x1="72" y1="75" x2="323" y2="75" stroke="#000000" stroke-width="1"/>

            <line id="alignmentLine" x1="437" y1="75" x2="504" y2="75" stroke="#000000" stroke-width="1"/>

            <rect id="strScoreBox" x="112" y="85" width="37" height="25"/>
            <rect id="strModBox" x="149" y="85" width="37" height="25"/>

            <rect id="occupationBox" x="305" y="85" width="211" height="25"/>

            <rect id="agiScoreBox" x="112" y="113" width="37" height="25"/>
            <rect id="agiModBox" x="149" y="113" width="37" height="25"/>

            <path id="hpHeart" fill="none" stroke="#000000" stroke-width="0.3" transform="scale(3.5) translate(4.2, -183)" d="m 63.138086,218.68442 c -0.07461,-0.46891 -0.432599,-4.14449 2.335034,-4.18374 1.114203,-0.0159 2.059044,0.50349 2.78938,1.53681 0.730336,-1.03332 1.675177,-1.55268 2.78938,-1.53681 2.767633,0.0392 2.409644,3.71483 2.335034,4.18374 -0.345647,2.17241 -2.294279,3.95414 -5.124414,5.12441 -2.830135,-1.17027 -4.778767,-2.952 -5.124414,-5.12441 z"/>
            <path id="acShield" fill="none" stroke="#000000" stroke-width="0.3" transform="scale(3.5) translate(8, -182.5)" d="m 88.9,218.96239 v -4.17838 h 9.055385 v 4.17838 c 0,3.03286 -2.504104,4.5806 -4.527691,4.5736 C 91.404107,223.54299 88.9,221.99525 88.9,218.96239 Z"/>
            <rect id="spdBox" x="446" y="113" width="37" height="25"/>

            <rect id="staScoreBox" x="112" y="141" width="37" height="25"/>
            <rect id="staModBox" x="149" y="141" width="37" height="25"/>

            <rect id="initBox" x="280" y="141" width="37" height="25"/>

            <rect id="moneyBox" x="390" y="141" width="126" height="25"/>

            <rect id="intScoreBox" x="112" y="169" width="37" height="25"/>
            <rect id="intModBox" x="149" y="169" width="37" height="25"/>

            <rect id="fortBox" x="282" y="169" width="37" height="25"/>
            <rect id="reflexBox" x="396" y="169" width="37" height="25"/>
            <rect id="willBox" x="479" y="169" width="37" height="25"/>

            <rect id="perScoreBox" x="112" y="197" width="37" height="25"/>
            <rect id="perModBox" x="149" y="197" width="37" height="25"/>

            <rect id="weaponBox" x="351" y="197" width="165" height="37"/>

            <rect id="lucScoreBox" x="112" y="225" width="37" height="25"/>
            <rect id="lucModBox" x="149" y="225" width="37" height="25"/>

            <rect id="luckySignBox" x="195" y="237" width="321" height="37"/>

            <rect id="langBox" x="111" y="278" width="405" height="37"/>

            <rect id="equipBox" x="114" y="319" width="402" height="37"/>

            <rect id="raceBox" x="126" y="359" width="390" height="37"/>
        </g>

        <g id="labels">
            <text x="28" y="30" font-size="24" font-family="Liberation Serif" textLength="472" lengthAdjust="spacingAndGlyphs">Dungeon Crawl Classics Zero Level Character</text>

            <text id="labelText" font-size="18" font-family="Liberation Serif">

                <tspan x="18" y="75">Name:</tspan>
                <tspan x="349" y="75">Alignment:</tspan>

                <tspan x="44" y="103">Strength:</tspan>
                <tspan x="214" y="103">Occupation:</tspan>

                <tspan x="54" y="131">Agility:</tspan>
                <tspan x="206" y="131">HP:</tspan>
                <tspan x="306" y="131">AC:</tspan>
                <tspan x="412" y="131">Spd:</tspan>

                <tspan x="45" y="159">Stamina:</tspan>
                <tspan x="208" y="159">Initiative:</tspan>
                <tspan x="332" y="159">Money:</tspan>

                <tspan x="19" y="187">Intelligence:</tspan>
                <tspan x="209" y="187">Fortitude:</tspan>
                <tspan x="325" y="187">Reflexes:</tspan>
                <tspan x="440" y="187">Will:</tspan>

                <tspan x="23" y="215">Personality:</tspan>
                <tspan x="222" y="222">Trained Weapon:</tspan>

                <tspan x="67" y="243">Luck:</tspan>
                <tspan x="100" y="269">Lucky Sign:</tspan>

                <tspan x="20" y="302">Languages:</tspan>
                <tspan x="23" y="341">Equipment:</tspan>
                <tspan x="20" y="381">Racial Traits:</tspan>

            </text>
        </g>

        <g id="editableFields">
            <text id="monoText" font-size="18" font-family="Liberation Mono">

                <tspan id="strScore" x="120" y="104">14</tspan>
                <tspan id="strMod" x="157" y="104">+1</tspan>

                <tspan id="agiScore" x="120" y="132">13</tspan>
                <tspan id="agiMod" x="157" y="132">+1</tspan>

                <tspan id="hitPoints" x="247" y="131">2</tspan>
                <tspan id="armorClass" x="344" y="131">11</tspan>
                <tspan id="spdScore" x="450" y="132">30'</tspan>

                <tspan id="staScore" x="120" y="160">12</tspan>
                <tspan id="staMod" x="157" y="160"> 0</tspan>

                <tspan id="initMod" x="288" y="160">+1</tspan>

                <tspan id="intScore" x="120" y="188"> 8</tspan>
                <tspan id="intMod" x="157" y="188">-1</tspan>

                <tspan id="fortMod" x="290" y="188"> 0</tspan>
                <tspan id="reflexMod" x="404" y="188">+1</tspan>
                <tspan id="willMod" x="487" y="188"> 0</tspan>

                <tspan id="perScore" x="120" y="215">12</tspan>
                <tspan id="perMod" x="157" y="215"> 0</tspan>

                <tspan id="lucScore" x="120" y="243">11</tspan>
                <tspan id="lucMod" x="157" y="243"> 0</tspan>

            </text>

            <text id="sansText" font-size="12" font-family="Liberation Sans">

                <tspan id="occupation" x="313" y="101">Armorer</tspan>

                <tspan id="money" x="398" y="157">CP:39</tspan>

                <tspan id="weapon1" x="359" y="211">Hammer (as club) 1d4</tspan>
                <tspan id="weapon2" x="359" y="225">0/0/0</tspan>

                <tspan id="luckySign1" x="203" y="251">The broken star:</tspan>
                <tspan id="luckySign2" x="203" y="265">Fumbles</tspan>

                <tspan id="languages1" x="119" y="292"></tspan>
                <tspan id="languages2" x="119" y="306">Common</tspan>

                <tspan id="equipment1" x="122" y="333">Hammer (as club) 1d4 0/0/0</tspan>
                <tspan id="equipment2" x="122" y="347">Iron helmet, Grappling hook</tspan>

                <tspan id="traits1" x="134" y="373"></tspan>
                <tspan id="traits2" x="134" y="387"></tspan>

            </text>
        </g>
    </g>

</g>


</svg>